<?xml version="1.0" standalone="no"?>
<!DOCTYPE svg PUBLIC "-//W3C//DTD SVG 20010904//EN"
 "http://www.w3.org/TR/2001/REC-SVG-20010904/DTD/svg10.dtd">
<svg version="1.0" xmlns="http://www.w3.org/2000/svg"
 width="1200.000000pt" height="1200.000000pt" viewBox="0 0 1200.000000 1200.000000"
 preserveAspectRatio="xMidYMid meet">

<g transform="translate(0.000000,1200.000000) scale(0.100000,-0.100000)"
fill="#000000" stroke="none">
<path d="M3000 6455 l0 -2995 3000 0 3000 0 0 2995 0 2995 -3000 0 -3000 0 0
-2995z m3208 1533 l2 -448 590 0 590 0 0 -405 0 -405 -590 0 -590 0 0 -507 c0
-297 4 -534 10 -571 42 -258 201 -369 540 -377 155 -4 287 12 434 51 56 14
110 28 121 31 19 4 26 -22 109 -362 49 -204 84 -370 80 -375 -11 -10 -254 -70
-424 -104 -194 -39 -326 -50 -570 -49 -263 1 -417 22 -583 80 -119 41 -178 69
-270 131 -220 144 -361 359 -433 657 -46 194 -54 317 -54 877 l0 518 -360 0
-360 0 0 385 0 385 23 1 c12 0 29 2 37 3 8 2 92 6 185 10 285 11 516 24 521
29 1 1 30 191 63 422 34 231 64 432 67 448 l6 27 426 -2 427 -3 3 -447z"/>
</g>
</svg>
